<svg width="32" height="32" viewBox="0 0 32 32" fill="none" xmlns="http://www.w3.org/2000/svg">
<g clip-path="url(#clip0_585_2286)">
<path d="M4.68832 27.3118C3.16016 25.8359 1.94124 24.0704 1.1027 22.1183C0.264156 20.1662 -0.177224 18.0667 -0.195685 15.9423C-0.214146 13.8178 0.190681 11.7109 0.995175 9.74457C1.79967 7.77823 2.98772 5.9918 4.49 4.48951C5.99229 2.98723 7.77872 1.79918 9.74506 0.994687C11.7114 0.190193 13.8183 -0.214634 15.9427 -0.196173C18.0672 -0.177712 20.1667 0.263667 22.1188 1.10221C24.0709 1.94076 25.8364 3.15967 27.3123 4.68783C30.2269 7.70547 31.8396 11.7471 31.8031 15.9423C31.7667 20.1374 30.084 24.1504 27.1174 27.1169C24.1509 30.0835 20.1379 31.7662 15.9427 31.8026C11.7476 31.8391 7.70596 30.2264 4.68832 27.3118ZM25.0563 25.0558C27.4581 22.654 28.8074 19.3965 28.8074 15.9998C28.8074 12.6032 27.4581 9.34563 25.0563 6.94383C22.6545 4.54203 19.397 3.19272 16.0003 3.19272C12.6037 3.19272 9.34612 4.54203 6.94432 6.94383C4.54252 9.34563 3.1932 12.6032 3.1932 15.9998C3.1932 19.3965 4.54252 22.654 6.94432 25.0558C9.34612 27.4576 12.6037 28.807 16.0003 28.807C19.397 28.807 22.6545 27.4576 25.0563 25.0558ZM14.4003 7.99983H17.6003V17.5998H14.4003V7.99983ZM14.4003 20.7998H17.6003V23.9998H14.4003V20.7998Z" fill="#403056"/>
</g>
<defs>
<clipPath id="clip0_585_2286">
<rect width="32" height="32" fill="white"/>
</clipPath>
</defs>
</svg>
